<?xml version="1.0" encoding="utf-8"?>
<!-- Generator: Adobe Illustrator 25.2.1, SVG Export Plug-In . SVG Version: 6.00 Build 0)  -->
<svg version="1.1" id="Capa_1" xmlns="http://www.w3.org/2000/svg" xmlns:xlink="http://www.w3.org/1999/xlink" x="0px" y="0px"
	 viewBox="0 0 16 16" style="enable-background:new 0 0 16 16;" xml:space="preserve">
<style type="text/css">
	.st0{fill:#0C0C0C;}
	.st1{fill:#FFFFFF;}
</style>
<g>
	<rect x="0.04" y="-0.02" class="st0" width="16.02" height="16.12"/>
	<g>
		<g>
			<g>
				<path class="st1" d="M4.53,9.09H2.84L2.52,9.88H1.66l1.62-3.66h0.83l1.63,3.66H4.85L4.53,9.09z M4.27,8.45l-0.58-1.4l-0.58,1.4
					H4.27z"/>
				<path class="st1" d="M6.47,6.21h1.65c0.39,0,0.74,0.08,1.05,0.23s0.54,0.37,0.71,0.64c0.17,0.28,0.25,0.6,0.25,0.96
					c0,0.37-0.08,0.69-0.25,0.96C9.71,9.28,9.48,9.5,9.17,9.65C8.87,9.8,8.52,9.88,8.13,9.88H6.47V6.21z M8.09,9.18
					c0.36,0,0.65-0.1,0.87-0.31c0.22-0.2,0.32-0.48,0.32-0.83c0-0.35-0.11-0.63-0.32-0.83c-0.22-0.2-0.51-0.31-0.87-0.31H7.32v2.27
					H8.09z"/>
				<path class="st1" d="M13.24,9.09h-1.69l-0.32,0.78h-0.86l1.62-3.66h0.83l1.63,3.66h-0.88L13.24,9.09z M12.98,8.45l-0.58-1.4
					l-0.58,1.4H12.98z"/>
			</g>
		</g>
	</g>
</g>
</svg>
