<svg id="Capa_1" data-name="Capa 1" xmlns="http://www.w3.org/2000/svg" viewBox="0 0 180.2 181.11" fill="#ffffff"><path d="M67.89,117.33c0-51.74,43.15-91.37,92-90.12,50,1.29,88.78,41.32,88.19,92.48-.57,48.92-42,89.12-91.32,88.6S67.29,166.62,67.89,117.33Zm141.26,64.81c25.68-16.8,37.95-55.94,28.13-88.89-10.48-35.2-43.13-58.7-81.39-58.57-37.2.12-69,24.17-79.58,60.09-9.37,32,3.4,71.15,28.47,87.35C134.55,155.89,180,155.58,209.15,182.14Zm-55.6-12.31c-13.36,4.43-18.36,15-23.4,27.12,11.7,3.64,14,4,23.4,4.36Zm7,31.67c11.69-1.53,14.89-2,23.81-4.7-6.17-11.69-10.88-22.46-23.81-27.16ZM135.17,173l-.87-1.35-25.17,14.14a80.87,80.87,0,0,0,14.16,8.07Zm44.38-1.39-.58,1.26,11.94,20.9c7.43-3.06,9.09-4.14,13.74-7.67Z" transform="translate(-67.88 -27.18)"/><path d="M133.62,132.37l-.14,18.72-6.52.37-2.62-43.87c-.06-1.62,2.19-4,3.94-4.85,2.29-1.16,5.14-1.2,8.5-1.87-1.48-13.45-2.93-26.69-4.42-40.33a11.2,11.2,0,0,1,3.42.05C143.61,64,148.11,62,153.2,55c1.37-1.89,2.2-2.74,3.62-4.53,1.16,1.34,2.31,2.69,3.48,4,2,2.27,3.77,4.88,6.13,6.7,3,2.32,6.08,3.2,10.15.33.92-.64,3.59-1.27,4.11-1.71-1.39,13.79-2.71,26.86-4,39.5.67.78.87,1.27,1.2,1.36,10.84,3.24,10.76,3.23,10.28,14.4l-1.46,35.87-6.34-.27-.5-18-5.34,0-.46,12.13-5.2-.18-.16-12.05-23.55-.13-.09,13h-4.75l.05-12.95S133.72,132.4,133.62,132.37Zm35.69-17.58c1.13-13.68,2.3-27.35,3.29-41,.06-.82-1.15-2.07-2.08-2.56-4.64-2.51-9.38-4.83-13.8-7.06-5.2,3.06-12.79,5-14.83,9.42-2.34,5.09.16,12.45.71,18.82.65,7.51,1.45,15,2.18,22.42Zm11.3,4.3,1.29-8.51-5.56-1.78-.29,7.4Zm-46.75,5.53v1h46.55v-1Zm-2.12-5.16,5.5-3.1v-8.22l-6,1.42Z" transform="translate(-67.88 -27.18)"/></svg>