<?xml version="1.0" encoding="utf-8"?>
<!-- Generator: Adobe Illustrator 25.0.0, SVG Export Plug-In . SVG Version: 6.00 Build 0)  -->
<svg version="1.1" id="Capa_1" xmlns="http://www.w3.org/2000/svg" xmlns:xlink="http://www.w3.org/1999/xlink" x="0px" y="0px"
	 viewBox="0 0 310 229.2" style="enable-background:new 0 0 310 229.2;" xml:space="preserve">
<style type="text/css">
	.st0{stroke:#000000;stroke-miterlimit:10;}
	.st1{stroke:#FFFFFF;stroke-width:0.25;stroke-miterlimit:10;}
</style>
<path d="M-0.1,197c0.4,0,0.7,0,1.1-0.1c7.6,0,15.1,0,22.7,0c0,0.9,0,1.8,0,2.7c0,0.9,0,1.7,0,2.6c-2.9,0-5.9,0.1-8.8,0.1
	c0,8.8,0.1,17.7,0.1,26.5c-2.1,0-4.2,0-6.2,0c0-8.8-0.1-17.7-0.1-26.5c-2.9,0-5.8,0.1-8.8,0.1C-0.1,200.6-0.1,198.8-0.1,197z"/>
<path d="M48.6,211.3c0,1.6,0,3.2-0.1,4.8c0,2.9-0.3,5.6-2.1,8.1c-2.4,3-6.1,4.7-10,4.7c-3.9,0-7.5-1.7-9.9-4.7
	c-1.9-2.4-2.1-5.2-2.2-8v-0.7c-0.1-1.3-0.1-2.7-0.1-4c0-1.8,0.1-3.6,0.3-5.3c0.6-3.4,2.8-6.3,5.9-7.9c1.8-0.9,3.8-1.4,5.8-1.4
	c5.6,0,11.1,3.5,12,8.9C48.5,207.6,48.6,209.5,48.6,211.3z M42.4,215.4v-0.8c0-0.9,0.1-1.8,0.1-2.7c0-1.4-0.1-2.9-0.2-4.3
	c-0.6-3.3-3.7-5.4-7-4.9c-1.5,0.3-2.8,1-3.7,2.2c-1.3,1.6-1.1,4-1.2,5.9c-0.1,1-0.1,2.1-0.1,3.2c0,1.4,0.1,2.9,0.3,4.3
	c0.4,2.8,3.3,4.8,6.1,4.8c1.6,0,3.2-0.7,4.1-2C42.4,219.7,42.4,217.3,42.4,215.4z"/>
<path d="M73.6,198.7c0.1-0.3,0.3-0.8,0.8-1.2c0.9-0.8,2-0.6,2.2-0.6c0,0,0,0,3,0c0.2,0,0.4,0,0.6,0c0,0.3,0,0.5,0,0.8
	c0,10.4-0.1,20.8-0.1,31.2c-1.1,0-2.3,0-3.4,0c-0.9,0-1.9,0-2.8,0c0-5.8,0.1-11.5,0.1-17.3c-2,4.2-3.9,8.5-5.9,12.7
	c-0.7,0-1.5,0-2.2,0c-0.9,0-1.9,0-2.8,0c-0.1,0-0.3-0.6-0.3-0.6l-5.6-12v16.5c0,0.2,0,0.4,0,0.6c-1,0-2.1,0-3.1,0
	c-1.1,0-2.2,0-3.3,0c0-10.7,0.1-21.3,0.1-32c1.6,0,3.2,0,4.8,0c0.1,0,0.4,0,0.7,0.2c0.3,0.2,0.5,0.4,0.6,0.5
	c2.9,6.2,5.8,12.4,8.7,18.5C68.3,210.3,71,204.5,73.6,198.7z"/>
<path d="M99.1,197.1c4.2,10.6,8.3,21.2,12.5,31.8c-2.2,0-4.4,0-6.6,0c-0.4-1-0.8-2-1.1-2.9c-0.5-1.3-1-2.6-1.4-3.9
	c-3.9,0-7.7,0-11.6,0c-0.2,0.5-1.3,3.5-1.5,4c-0.1,0.3-0.9,2.6-1,2.8c-2.2,0-4.3,0-6.5,0c4.2-10.6,8.3-21.2,12.5-31.8
	c0.8,0,1.6,0,2.4,0C97.5,197.1,98.3,197.1,99.1,197.1z M100.6,216.8c-1.3-3.7-2.6-7.4-3.9-11.1c-1.3,3.7-2.6,7.4-3.9,11.1H100.6z"/>
<path d="M160.2,196.9c2.1,0,4.2,0,6.3,0c0,6.7,0,13.4,0,20.1c0,5.7-3.4,10.7-9.8,11.7c-0.8,0.1-1.5,0.2-2.3,0.2
	c-6.8,0-12.2-4.8-12.3-11.2c0-2.2,0-4.5,0-6.7c0-4.5,0-9,0-13.5c0-0.2,0-0.4,0-0.6c0.9,0,1.8,0,2.6,0c1.2,0,2.4,0,3.5,0
	c0,6.8,0,13.6,0,20.3c-0.1,3.2,2.3,5.8,5.5,5.9c0,0,0,0,0.1,0h0.5c3.2,0.1,5.9-2.3,6-5.5c0-0.2,0-0.3,0-0.5
	C160.2,210.4,160.2,203.7,160.2,196.9z"/>
<path d="M184.9,197v26.3c0,0,1.8,0,1.9,0c4.7,0,9.4,0,14,0c0,0.9,0,1.9,0,2.8c0,0.9,0,1.8,0,2.7c-0.2,0-0.3,0-0.5,0h-21.8v-30.8
	c0-0.3,0-0.5,0-0.7s0.1-0.4,0.7-0.4L184.9,197z"/>
<path d="M239.8,216.1v-5.3c0-0.1,0-0.2,0.3-0.2h12.5v6.7c0,6.3-5.6,11.4-12.3,11.4c-0.8,0-1.6-0.1-2.5-0.2c-3.7-0.6-6.9-3-8.6-6.4
	c-0.8-2-1.2-4.3-1-6.5v-2.3c0-1,0-2,0-3c-0.1-2,0.2-4,0.7-6c1.4-3.6,4.4-6.2,8.1-7.2c1.1-0.3,2.3-0.4,3.5-0.4c2.5,0,5,0.6,7.1,2
	c2.7,1.9,4.6,4.9,5.1,8.2h-5.8c-0.2,0-0.4,0-0.7-0.2c-0.3-0.2-0.3-0.6-0.3-0.7c-0.1-0.9-1.6-2.7-3.3-3.2c-0.7-0.2-1.4-0.4-2.1-0.4
	c-2.7-0.1-5.1,1.7-5.8,4.3c-0.3,1.5-0.4,3.1-0.4,4.6c0,1.5,0.1,3,0.1,4.4c0.1,2.7,0.4,5.3,3.3,6.8c0.8,0.4,1.7,0.6,2.6,0.6
	c2,0,4.3-1.1,5.5-3.2c0.9-1.6,0.8-3.1,0.7-3.8c-0.5,0-1,0-1.6,0C243.2,216.2,241.5,216.2,239.8,216.1z"/>
<path d="M309,228.9c-2.4,0-4.9,0-7.3,0c-0.3-0.6-0.6-1.2-0.9-1.8c-1.9-3.7-3.9-7.5-5.8-11.2c-0.9,0-1.8,0-2.7,0c-0.9,0-1.8,0-2.7,0
	c0,4.3,0,8.7-0.1,13c-2.1,0-4.1,0-6.2,0c0-10.3,0-20.6,0-30.9c0-0.2,0-0.4,0-0.5s0.1-0.4,0.6-0.4c1.3,0,3.3,0,5.7,0
	c1.2,0,2.1,0,2.8,0c0.9,0,1.6,0,2,0c5.1,0,5.1,0,5.3,0c2.5,0.4,4.2,2.1,4.8,2.7c0.9,0.9,3,3.2,2.9,6.4c-0.1,3.9-2.5,7.5-6.2,8.9
	L309,228.9z M289.7,210.4c0.7,0,1.4,0,2.1,0h4.5c2.2,0,4.3-1,4.9-3c0.2-0.6,0.2-1.1,0.2-1.3c0-1.7-1.2-3.5-2.7-3.9
	c-0.4-0.1-0.4-0.1-3.2,0c-1.4,0-1.3,0-2.5,0c-0.9,0-2.1,0-3.5,0.1C289.6,205,289.7,207.7,289.7,210.4z"/>
<path d="M202.3,203.8"/>
<path d="M115.5,197c0.4,0,0.7,0,1.1-0.1c7.6,0,15.1,0,22.7,0c0,0.9,0,1.8,0,2.7c0,0.9,0,1.7,0,2.6c-2.9,0-5.9,0.1-8.8,0.1
	c0,8.8,0.1,17.7,0.1,26.5c-2.1,0-4.2,0-6.2,0c0-8.8-0.1-17.7-0.1-26.5c-2.9,0-5.8,0.1-8.8,0.1C115.5,200.6,115.5,198.8,115.5,197z"
	/>
<path d="M219,196.9c1,0,2,0,3.1,0c1.1,0,2.1,0,3.2,0c0,6.7,0,13.4,0,20.1c0,5.7-3.4,10.7-9.8,11.7c-0.8,0.1-1.5,0.2-2.3,0.2
	c-6.8,0-12.2-4.8-12.3-11.2c0-2.2,0-4.5,0-6.7c0-4.5,0-9,0-13.5c0-0.2,0-0.4,0-0.6c0.9,0,1.8,0,2.6,0c1.2,0,2.4,0,3.5,0
	c0,6.8,0,13.6,0,20.3c-0.1,3.2,2.3,5.8,5.5,5.9c0,0,0,0,0.1,0h0.5c3.2,0.1,5.9-2.3,6-5.5c0-0.2,0-0.3,0-0.5
	C219,210.5,219,203.7,219,196.9z"/>
<path d="M268.7,197.1c4.2,10.6,8.3,21.2,12.5,31.8c-1.1,0-2.2,0-3.3,0c-1.1,0-2.3,0-3.4,0c-0.4-1-0.8-2-1.1-2.9
	c-0.5-1.3-1-2.6-1.4-3.9c-3.9,0-7.7,0-11.6,0c-0.5,1.3-1,2.7-1.5,4c-0.3,1-0.7,1.9-1,2.9c-2.2,0-4.3,0-6.5,0
	c4.2-10.6,8.3-21.2,12.5-31.8c0.8,0,1.6,0,2.4,0C267,197.1,267.8,197.1,268.7,197.1z M270.2,216.6c-1.3-3.7-2.6-7.4-3.9-11.1
	c-1.3,3.7-2.6,7.4-3.9,11.1H270.2z"/>
<g>
	<path class="st0" d="M212.9,20.8C190.7,2.4,166,1.1,157.8,0.8c-0.6,0-1.4,0-2.3-0.1v0c-1,0-1.8,0-2.5,0.1
		c-8.2,0.3-32.9,1.6-55.1,20c-1.3,1.1-32.4,27.8-31.5,68.9c0.9,42.4,35.8,90.5,88.9,91c0,0,0,0,0,0v0c0.1,0,0.1,0,0.2,0
		c53.1-0.6,88-48.6,88.9-91C245.3,48.7,214.3,22,212.9,20.8z M116.9,164.1c-2.4-1.3-4.4-2.7-6.3-4.1c2.8-3.7,7.6-8.7,14.7-12.6
		c2.8-1.5,5.5-2.6,7.9-3.4c1.2-0.2,2.4-0.5,3.5-0.7c-2.1,3.5-4.2,7.3-6.2,11.2c-2.4,4.5-4.6,8.9-6.6,13.1
		C121.8,166.7,119.4,165.6,116.9,164.1z M151.9,174.3c-3.2-0.1-6.8-0.5-10.8-1.2c-4.2-0.8-7.8-1.8-11-2.8
		c0.3-0.6,7.2-15.8,11.8-22.8c0.9-1.4,2.3-3.3,4.8-4.4c2.1-1,4.1-0.9,5.3-0.8C152,152.9,152,163.6,151.9,174.3z M169.8,173.1
		c-4,0.7-7.6,1.1-10.8,1.2c-0.1-10.7-0.1-21.3-0.2-32c1.3-0.1,3.2-0.1,5.3,0.8c2.5,1.1,3.9,3,4.8,4.4c4.7,7,11.6,22.2,11.8,22.8
		C177.6,171.3,174,172.3,169.8,173.1z M194,164.1c-2.5,1.4-4.9,2.6-7.1,3.5c-2-4.2-4.2-8.6-6.6-13.1c-2.1-3.9-4.2-7.6-6.2-11.2
		c1.2,0.2,2.4,0.5,3.5,0.7c2.4,0.8,5.1,1.9,7.9,3.4c7.2,3.9,11.9,8.9,14.7,12.6C198.5,161.4,196.4,162.8,194,164.1z M206.9,155
		c-4.3-3.9-22.9-19.8-51.3-20.2v0c-28.6,0.4-47.2,16.4-51.5,20.2c-7.2-6.6-14.9-15.7-21-27.5c-4.1-7.9-10.6-21-10.4-38.7
		c0.1-10.9,2.8-19.2,4.3-23.9c4.6-13.8,11.5-23.3,15.3-27.9c9.1-11.1,18.6-17,21.2-18.6c0.9-0.5,19.4-11.3,41.9-11.4v0
		c0,0,0.1,0,0.1,0c22.5,0.1,41.1,10.9,42,11.4c2.6,1.6,12.1,7.5,21.2,18.6c3.8,4.6,10.8,14.1,15.3,27.9c1.6,4.7,4.2,13,4.3,23.9
		c0.2,17.7-6.4,30.7-10.4,38.7C221.7,139.4,214,148.4,206.9,155z"/>
	<path class="st1" d="M184.1,75.2c-2.3-1.2-5.1-1.2-8.5-1.9c1.5-13.5,2.9-26.7,4.4-40.3c-0.8,0.2-1.6,0.5-2.5,0.7
		c-5.1,2.1-8.7,1.1-9.9,0.7c-3.2-1.1-5.7-3.1-8.5-6.9c-1.4-1.9-2.2-2.7-3.6-4.5c0,0,0,0-0.1,0.1c0,0,0-0.1-0.1-0.1
		c-1.4,1.8-2.2,2.6-3.6,4.5c-2.8,3.8-5.3,5.8-8.5,6.9c-1.2,0.4-4.8,1.4-9.9-0.7c-0.8-0.2-1.6-0.5-2.5-0.7
		c1.5,13.6,2.9,26.9,4.4,40.3c-3.4,0.7-6.2,0.7-8.5,1.9c-1.8,0.9-4,3.2-3.9,4.9l2.6,43.9c2.2,0,4.3,0,6.5-0.1c0-6.3,0.1-12.7,0.1-19
		c0.1,0,6.8,0.1,6.8,0.1l0,13h4.8l0.1-13l11.6,0.1v0l11.8-0.1l0.1,13h4.8l0-13c0,0,6.6-0.1,6.8-0.1c0,6.3,0.1,12.7,0.1,19
		c2.2,0,4.3,0,6.5,0.1L188,80C188.1,78.4,185.8,76,184.1,75.2z M140.5,46c0.7-1.6,3.2-3.8,6.2-5.2c1.7-0.8,4.5-1.8,8.6-4.2
		c0,0,0,0,0,0c0,0,0,0,0,0c0,0,0,0,0,0c0,0,0.1,0,0.1,0c0.1,0,0.2,0,0.2,0.1c5.2,3.1,12.8,5,14.8,9.4c2.3,5.1-0.2,12.4-0.7,18.8
		c-0.7,7.5-1.5,15-2.2,22.4l-12,0v0l-12.2,0c-0.7-7.4-1.5-14.9-2.2-22.4C140.6,58.5,138.1,51.1,140.5,46z M130.3,91.9l-0.5-9.9
		l6-1.4v8.2L130.3,91.9z M178.5,98.1h-22.9v0h-23.1v-1h22.9v0h23.1V98.1z M180.6,91.9l-5.5-3.1v-8.2l6,1.4L180.6,91.9z"/>
</g>
</svg>
