<svg id="Capa_1" data-name="Capa 1" xmlns="http://www.w3.org/2000/svg" viewBox="0 0 315.97 235.47" fill="#ffffff"><defs><style>.cls-1{fill:#fff0;}</style></defs><path class="cls-1" d="M207.34,374.7c-.6,49.29,39.6,90.45,88.84,91s90.75-39.68,91.32-88.6" transform="translate(-140.79 -285.48)"/><path d="M207.34,375.63c0-51.74,43.15-91.37,92-90.12,50,1.29,88.78,41.32,88.19,92.48-.57,48.92-42,89.12-91.32,88.6S206.74,424.92,207.34,375.63ZM348.6,440.44c25.68-16.8,37.95-55.94,28.13-88.89-10.48-35.2-43.13-58.7-81.39-58.57-37.2.12-69,24.17-79.58,60.09-9.37,32,3.4,71.15,28.47,87.35C274,414.19,319.43,413.88,348.6,440.44ZM293,428.13c-13.36,4.43-18.36,15-23.4,27.12,11.7,3.64,14,4,23.4,4.36Zm7,31.67c11.69-1.53,14.89-2,23.81-4.7-6.17-11.69-10.88-22.46-23.81-27.16Zm-25.38-28.5-.87-1.35-25.17,14.14a80.49,80.49,0,0,0,14.16,8.07ZM319,429.91l-.58,1.26,11.94,20.9c7.43-3.06,9.09-4.14,13.74-7.67Z" transform="translate(-140.79 -285.48)"/><path d="M273.07,390.67l-.14,18.72-6.52.37-2.62-43.87c-.06-1.62,2.19-4,3.94-4.85,2.29-1.16,5.14-1.2,8.5-1.87-1.48-13.45-2.93-26.69-4.42-40.33a11.58,11.58,0,0,1,3.42.05c7.83,3.43,12.33,1.42,17.42-5.58,1.37-1.89,2.2-2.74,3.62-4.53,1.16,1.34,2.31,2.69,3.48,4,2,2.27,3.77,4.88,6.13,6.7,3,2.32,6.08,3.2,10.15.33.92-.64,3.59-1.27,4.11-1.71-1.39,13.79-2.71,26.86-4,39.5.67.78.87,1.27,1.2,1.36,10.84,3.24,10.76,3.23,10.28,14.4l-1.46,35.87-6.34-.27-.5-18-5.34-.05-.46,12.13-5.2-.18-.16-12.05-23.55-.13-.09,13-4.75,0,.05-12.95S273.17,390.7,273.07,390.67Zm35.69-17.58c1.13-13.68,2.3-27.35,3.29-41,.06-.82-1.15-2.07-2.08-2.56-4.64-2.51-9.38-4.83-13.8-7.06-5.2,3.06-12.79,5-14.83,9.42-2.34,5.09.16,12.45.71,18.82.65,7.51,1.45,15,2.18,22.42Zm11.3,4.3,1.29-8.51-5.56-1.78-.29,7.4Zm-46.75,5.53,0,1.05h46.55v-1.05Zm-2.12-5.16,5.5-3.1,0-8.22-6,1.42Z" transform="translate(-140.79 -285.48)"/><path d="M140.79,489.34c0-.54.09-.63.41-.63s.46,0,.82,0h22.12c.64,0,.78.14.78.5s0,.55,0,1c0,.18,0,1.14,0,2.05s0,1.74-.19,1.74h-6.15c-.32,0-1.05-.09-1.64-.09s-1.05.09-1.05.41v25.95c0,.27-.64.32-1.37.32s-1.87-.09-2.14-.09-1.15.13-1.69.13-1-.13-1-.59V494.13a21.79,21.79,0,0,0-4.11-.18c-2.09,0-4.33.05-4.83.05Z" transform="translate(-140.79 -285.48)"/><path d="M189.6,503.12c0,1.64,0,3.24-.1,4.83,0,2.92-.27,5.57-2.14,8.08a12.55,12.55,0,0,1-10,4.65,12.69,12.69,0,0,1-9.94-4.7c-1.87-2.37-2.1-5.2-2.19-8v-.68c-.05-1.32-.09-2.69-.09-4a41,41,0,0,1,.32-5.33,10.9,10.9,0,0,1,5.93-7.85,12.41,12.41,0,0,1,5.79-1.41c5.61,0,11.13,3.51,12,8.85A38.69,38.69,0,0,1,189.6,503.12Zm-6.21,4.06v-.78c0-.91.05-1.78.05-2.69a34.39,34.39,0,0,0-.23-4.33,6,6,0,0,0-10.63-2.65c-1.27,1.6-1.14,4-1.18,5.93-.05,1-.09,2.15-.09,3.24a27.44,27.44,0,0,0,.32,4.33c.45,2.79,3.33,4.79,6.11,4.79a5.15,5.15,0,0,0,4.15-2C183.39,511.46,183.39,509.09,183.39,507.18Z" transform="translate(-140.79 -285.48)"/><path d="M212.9,492c.46-1.05,1-2.1,1.46-3.15,0-.14.64-.18,1.37-.18,1.28,0,3.1.13,3.47.13h.36c.28,0,.51.05.55.6v31.15h-5.2c-.14,0-.41,0-.64,0s-.36,0-.36-.18v-17l-5.7,12.32c-.23.41-.69.5-1.23.5s-1.19-.09-1.6-.09h-2.33c-.09,0-.27-.59-.27-.64l-5.61-12V520c0,.14.05.23.05.37s-.05.23-.19.23h-2.78c-.32,0-1.23.09-2,.09s-1.27,0-1.27-.37v-31.1c0-.41.5-.5,1.05-.5s1.41.13,1.82.13,1.19-.13,1.78-.13a1.32,1.32,0,0,1,1.32.63c2.87,6.21,5.79,12.36,8.67,18.52Z" transform="translate(-140.79 -285.48)"/><path d="M239.18,488.89l12.36,31.88h-6.16c-.32,0-.41,0-.59-.46l-1-2.6c-.18-.5-1.05-3.83-1.59-3.83H231c-.37,0-1.33,3.19-1.56,4,0,0,0,.09,0,.14l-1,2.55c-.09.23-.32.27-.55.27s-.36,0-.54,0c-1.14,0-3.74.18-5.07.18-.5,0-.82,0-.82-.09s.14-.09.37-.18l11.63-30.15c.14-.32.36-1.41.68-1.64a1.49,1.49,0,0,1,.73-.14c.69,0,1.6.14,1.92.14Zm1.41,19.7c-1.27-3.69-2.6-7.39-3.92-11.13-1.28,3.74-2.6,7.44-3.92,11.13Z" transform="translate(-140.79 -285.48)"/><path d="M263.4,489.34c0-.54.09-.63.41-.63s.46,0,.82,0h22.12c.64,0,.78.14.78.5s0,.55,0,1c0,.18,0,1.14,0,2.05s0,1.74-.18,1.74h-6.16c-.32,0-1.05-.09-1.64-.09s-1.05.09-1.05.41v25.95c0,.27-.64.32-1.37.32s-1.87-.09-2.14-.09-1.14.13-1.69.13-1-.13-1-.59V494.13a21.65,21.65,0,0,0-4.1-.18c-2.1,0-4.33.05-4.84.05Z" transform="translate(-140.79 -285.48)"/><path d="M307.19,488.71a31.23,31.23,0,0,1,3.74-.09h2.46v20.15c0,5.66-3.42,10.68-9.8,11.68a13.07,13.07,0,0,1-2.33.18c-6.75,0-12.18-4.79-12.31-11.17-.05-2.24-.05-4.47-.05-6.71,0-4.47.05-9,.05-13.45v-.68h2.37c.27,0,1.19-.05,2.1-.05s1.73.05,1.73.32V509a5.72,5.72,0,0,0,5.56,5.93h.46a5.74,5.74,0,0,0,6-5.93Z" transform="translate(-140.79 -285.48)"/><path d="M331.55,488.8v26.31s1.83,0,1.92,0h13.18c.09,0,.32,0,.54,0s.32,0,.32.1v2.41c0,.37.14,1.19.14,1.87s-.09,1.19-.59,1.19H325.3V489.89c0-.27,0-.5,0-.68s.09-.41.68-.41Z" transform="translate(-140.79 -285.48)"/><path d="M367.31,488.71a31.23,31.23,0,0,1,3.74-.09h2.46v20.15c0,5.66-3.42,10.68-9.8,11.68a13.07,13.07,0,0,1-2.33.18c-6.75,0-12.17-4.79-12.31-11.17-.05-2.24-.05-4.47-.05-6.71,0-4.47.05-9,.05-13.45v-.68h2.37c.27,0,1.19-.05,2.1-.05s1.73.05,1.73.32V509a5.72,5.72,0,0,0,5.56,5.93h.46a5.74,5.74,0,0,0,6-5.93Z" transform="translate(-140.79 -285.48)"/><path d="M386.56,508v-5.29c0-.13.05-.18.32-.18h12.5v6.75c0,6.34-5.61,11.36-12.32,11.36a14.62,14.62,0,0,1-2.46-.23A11.77,11.77,0,0,1,376,514a14.64,14.64,0,0,1-1.05-6.47v-2.33c0-1,0-2,0-3a20,20,0,0,1,.73-6,11.63,11.63,0,0,1,8.07-7.16,14.88,14.88,0,0,1,3.46-.41,12.63,12.63,0,0,1,7.07,2,12.4,12.4,0,0,1,5.11,8.16h-5.79a1,1,0,0,1-.55-.09,3.93,3.93,0,0,1-.41-.73,5.47,5.47,0,0,0-3.28-3.24,6.77,6.77,0,0,0-2.1-.36,5.74,5.74,0,0,0-5.75,4.28,21.91,21.91,0,0,0-.41,4.61c0,1.46.09,3,.14,4.38.09,2.69.36,5.33,3.28,6.84a5.87,5.87,0,0,0,2.6.59,6.31,6.31,0,0,0,5.52-3.24,7.92,7.92,0,0,0,.64-3.69s-.23-.09-.5-.09-.87,0-1,0Z" transform="translate(-140.79 -285.48)"/><path d="M417.31,488.89l12.36,31.88h-6.16c-.32,0-.41,0-.59-.46l-1-2.6c-.18-.5-1-3.83-1.6-3.83H409.14c-.36,0-1.32,3.19-1.55,4,0,0,0,.09,0,.14l-1,2.55c-.09.23-.32.27-.55.27s-.36,0-.55,0c-1.14,0-3.74.18-5.06.18-.5,0-.82,0-.82-.09s.14-.09.36-.18l11.63-30.15c.14-.32.37-1.41.69-1.64a1.49,1.49,0,0,1,.73-.14c.68,0,1.59.14,1.91.14Zm1.41,19.7c-1.28-3.69-2.6-7.39-3.92-11.13-1.28,3.74-2.6,7.44-3.92,11.13Z" transform="translate(-140.79 -285.48)"/><path d="M456.76,520.68c-4.33,0-6,.09-6.75.09a1.34,1.34,0,0,1-.59-.09c-.37-.23-.69-1.42-.91-1.78l-5.75-11.13c-.14-.27-1-.32-2-.32a22.58,22.58,0,0,0-3.42.23v12.95c0,.09-.18.09-.64.09-.68,0-2.05,0-4.42,0h-1.19v-31c0-.22,0-.41,0-.54s.09-.37.64-.37H438c1.41,0,2.87,0,4.33,0,3.61,0,7.26.32,9.95,2.73a8.41,8.41,0,0,1,2.92,6.39,9.84,9.84,0,0,1-6.16,8.94Zm-19.43-18.84c0,.41.37.5.82.5s1.05-.09,1.42-.09h4.51c2.24,0,4.29-1,4.93-3.05a4.35,4.35,0,0,0,.18-1.28,3.81,3.81,0,0,0-3.69-3.83c-1-.09-2-.14-3.06-.14-1.73,0-3.42.09-5.11.09Z" transform="translate(-140.79 -285.48)"/></svg>