<svg id="Capa_1" data-name="Capa 1" xmlns="http://www.w3.org/2000/svg" viewBox="0 0 164.34 165.01"><defs><style>.cls-1,.cls-2{fill:#fff;}.cls-2{fill-rule:evenodd;}</style></defs><g id="Layer_1" data-name="Layer 1"><g id="shape_4" data-name="shape 4"><path class="cls-1" d="M37.57,197.32l11.61-42.38a81.8,81.8,0,1,1,70.89,41h0A81.73,81.73,0,0,1,81,186ZM83,171.14l2.48,1.48A68,68,0,0,0,120,182.09h0a68,68,0,1,0-57.61-31.85l1.62,2.57-6.87,25.08Z" transform="translate(-37.57 -32.31)"/></g><g id="shape_1" data-name="shape 1"><path class="cls-2" d="M99.62,79.88c-1.53-3.4-3.14-3.47-4.6-3.53-1.19,0-2.56,0-3.92,0a7.48,7.48,0,0,0-5.45,2.56,22.91,22.91,0,0,0-7.15,17c0,10.06,7.32,19.78,8.34,21.14s14.14,22.66,34.92,30.86c17.27,6.81,20.78,5.45,24.53,5.11s12.09-4.94,13.8-9.71,1.7-8.87,1.19-9.72-1.87-1.37-3.92-2.39-12.09-6-14-6.65-3.23-1-4.6,1-5.27,6.64-6.47,8-2.38,1.53-4.43.51a55.89,55.89,0,0,1-16.43-10.14,61.48,61.48,0,0,1-11.38-14.16c-1.19-2-.12-3.15.9-4.17s2-2.39,3.07-3.58a13.57,13.57,0,0,0,2-3.41,3.76,3.76,0,0,0-.17-3.58C105.41,94,101.44,83.92,99.62,79.88Z" transform="translate(-37.57 -32.31)"/></g></g></svg>